<svg width="27" height="28" viewBox="0 0 27 28" fill="none" xmlns="http://www.w3.org/2000/svg">
<g id="&#240;&#159;&#166;&#134; icon &#34;arrow circle right&#34;">
<path id="Vector" d="M13.215 0.785156C5.93354 0.785156 0 6.71869 0 14.0002C0 21.2816 5.93354 27.2152 13.215 27.2152C20.4965 27.2152 26.43 21.2816 26.43 14.0002C26.43 6.71869 20.4965 0.785156 13.215 0.785156ZM16.902 14.7006L12.2371 19.3654C12.0389 19.5637 11.7878 19.6562 11.5367 19.6562C11.2856 19.6562 11.0345 19.5637 10.8363 19.3654C10.4531 18.9822 10.4531 18.3479 10.8363 17.9647L14.8008 14.0002L10.8363 10.0357C10.4531 9.65242 10.4531 9.0181 10.8363 8.63487C11.2195 8.25163 11.8539 8.25163 12.2371 8.63487L16.902 13.2998C17.2984 13.683 17.2984 14.3173 16.902 14.7006Z" fill="white"/>
</g>
</svg>
